<?xml version="1.0" encoding="utf-8"?>
<!-- Generator: Adobe Illustrator 23.0.1, SVG Export Plug-In . SVG Version: 6.00 Build 0)  -->
<svg version="1.1" id="Layer_1" xmlns="http://www.w3.org/2000/svg" xmlns:xlink="http://www.w3.org/1999/xlink" x="0px" y="0px"
	 viewBox="0 0 512 512" style="enable-background:new 0 0 512 512;" xml:space="preserve">
<style type="text/css">
	.st0{fill:url(#SVGID_1_);}
	.st1{fill:#E9EFFF;}
	.st2{fill:#D3DCFB;}
	.st3{fill:#FF4155;}
	.st4{fill:#E80054;}
	.st5{fill:#FFDD40;}
	.st6{fill:#BEC8F7;}
	.st7{fill:#1C2E7A;}
	.st8{fill:#142766;}
	.st9{fill:#3C58A0;}
	.st10{fill:#2A428C;}
	.st11{fill:#FFB332;}
</style>
<g>
	<linearGradient id="SVGID_1_" gradientUnits="userSpaceOnUse" x1="256" y1="0" x2="256" y2="473.6328">
		<stop  offset="0" style="stop-color:#8C03DF"/>
		<stop  offset="0.2208" style="stop-color:#8804DE"/>
		<stop  offset="0.4484" style="stop-color:#7B06DD"/>
		<stop  offset="0.6792" style="stop-color:#670ADA"/>
		<stop  offset="0.9108" style="stop-color:#4A0FD7"/>
		<stop  offset="1" style="stop-color:#3D11D5"/>
	</linearGradient>
	<path class="st0" d="M6.2,199.6C2.2,217.8,0,236.6,0,256c0,91.9,48.4,172.5,121.2,217.6l361.6-98.7c18.7-35.5,29.3-76,29.3-118.9
		C512,114.6,397.4,0,256,0C155.8,0,69.1,57.6,27,141.4L6.2,199.6z"/>
	<path class="st1" d="M482.7,13.9c0-7.6-6.3-13.9-13.9-13.9H135.1c-7.6,0-13.9,6.3-13.9,13.9v87.5l11.6-5.3c8.1-3.7,17.5-3.7,25.6,0
		L303,162c11.4,5.2,11.4,21.3,0,26.5l-54.4,24.8v60.4c0,6.8-10.9,14-29.1,19.3c-26.7,7.8-64.2,10.5-98.4,8.1v172.6
		C160.3,497.9,206.5,512,256,512c98.5,0,183.9-55.6,226.7-137.1L482.7,13.9z"/>
	<g>
		<path class="st2" d="M274.6,0H135.1c-7.6,0-13.9,6.3-13.9,13.9v87.5l11.6-5.3c8.1-3.7,17.5-3.7,25.6,0l133.1,60.7
			c-5.8-16.3-3.1-33.1-0.9-42c0.9-3.5-0.2-7.3-3-9.7c-6.4-5.7-6-13.2-4.6-18.4c1-3.7-0.2-7.7-3.2-10.2c-30-25.3-13.1-60.9-6.6-72.1
			C274.1,2.9,274.5,1.5,274.6,0L274.6,0z"/>
		<path class="st2" d="M317.4,186.3c-2.7-1.5-5.1-3.1-7.3-4.7c-1.4,2.9-3.7,5.4-7.1,6.9l-54.4,24.8v60.4c0,6.8-10.9,14-29.1,19.3
			c-26.7,7.8-64.2,10.5-98.4,8.1v172.6C160.3,497.9,206.5,512,256,512c5.2,0,10.5-0.2,15.6-0.5c-26.1-20.2-26.7-48.6-26.7-48.6
			v-65.5c0-16.1,6.9-31.6,19.3-41.9c38.1-31.6,30.1-83.6,30.1-111.9c0-21.9,12.9-29.5,21.2-32.2c4.1-1.3,7-5.1,7-9.5v-6.7
			C322.7,191.4,320.6,188.1,317.4,186.3L317.4,186.3z"/>
	</g>
	<g>
		<g>
			<path class="st3" d="M375.4,129.6c-44.6-29-102.4-29-147,0c-6.5,4.2-15.3,2.4-19.5-4.1c-4.2-6.5-2.4-15.3,4.1-19.5
				c53.9-35.1,123.8-35.1,177.7,0c6.5,4.2,8.4,13,4.1,19.5C390.7,132,382,133.9,375.4,129.6z"/>
		</g>
	</g>
	<path class="st4" d="M228.5,129.6c18.9-12.3,40.1-19.3,61.7-21.2c-0.6-1.3-1.4-2.5-2.5-3.5c-6.4-5.7-6-13.2-4.6-18.4
		c0.5-1.9,0.4-3.9-0.2-5.7c-24.4,2.9-48.4,11.2-69.8,25.2c-6.5,4.2-8.4,13-4.1,19.5C213.2,132,221.9,133.9,228.5,129.6z"/>
	<g>
		<path class="st5" d="M354.5,209.9h-31.8c-5.8,0-10.4-4.7-10.4-10.4c0-5.8,4.7-10.4,10.4-10.4h31.8c5.8,0,10.4,4.7,10.4,10.4
			C364.9,205.2,360.2,209.9,354.5,209.9z"/>
	</g>
	<g>
		<path class="st6" d="M429,243.5H271.8c-4.3,0-7.8-3.5-7.8-7.8c0-4.3,3.5-7.8,7.8-7.8H429c4.3,0,7.8,3.5,7.8,7.8
			C436.8,240,433.3,243.5,429,243.5z"/>
	</g>
	<g>
		<path class="st6" d="M429,274.6H271.8c-4.3,0-7.8-3.5-7.8-7.8s3.5-7.8,7.8-7.8H429c4.3,0,7.8,3.5,7.8,7.8S433.3,274.6,429,274.6z"
			/>
	</g>
	<g>
		<path class="st6" d="M429,305.6H260.3c-4.3,0-7.8-3.5-7.8-7.8c0-4.3,3.5-7.8,7.8-7.8H429c4.3,0,7.8,3.5,7.8,7.8
			C436.8,302.1,433.3,305.6,429,305.6z"/>
	</g>
	<g>
		<path class="st6" d="M429,336.6H175c-4.3,0-7.8-3.5-7.8-7.8c0-4.3,3.5-7.8,7.8-7.8h254c4.3,0,7.8,3.5,7.8,7.8
			C436.8,333.1,433.3,336.6,429,336.6z"/>
	</g>
	<g>
		<path class="st6" d="M429,367.6H175c-4.3,0-7.8-3.5-7.8-7.8c0-4.3,3.5-7.8,7.8-7.8h254c4.3,0,7.8,3.5,7.8,7.8
			C436.8,364.1,433.3,367.6,429,367.6z"/>
	</g>
	<g>
		<path class="st6" d="M413.9,411.8h-22.2c-4.3,0-7.8-3.5-7.8-7.8s3.5-7.8,7.8-7.8h22.2c4.3,0,7.8,3.5,7.8,7.8
			S418.2,411.8,413.9,411.8z"/>
	</g>
	<path class="st6" d="M429,429.3c-0.7,0-0.7,0-1.8-0.8c-1.9-1.3-5.1-3.4-10.6-3.4c-5.5,0-8.7,2.1-10.6,3.4c-1.1,0.8-1.1,0.8-1.8,0.8
		c-0.7,0-0.7,0-1.8-0.8c-1.9-1.3-5.1-3.4-10.6-3.4c-4.3,0-7.8,3.5-7.8,7.8c0,4.3,3.5,7.8,7.8,7.8c0.7,0,0.7,0,1.8,0.8
		c1.9,1.3,5.1,3.4,10.6,3.4c5.5,0,8.7-2.1,10.6-3.4c1.1-0.8,1.1-0.8,1.8-0.8c0.7,0,0.7,0,1.8,0.8c1.9,1.3,5,3.4,10.4,3.4
		c2.7-2.5,5.4-5.1,8-7.7c0,0,0-0.1,0-0.1C436.8,432.8,433.3,429.3,429,429.3L429,429.3z"/>
	<g>
		<path class="st6" d="M305.5,411.8h-22.2c-4.3,0-7.8-3.5-7.8-7.8s3.5-7.8,7.8-7.8h22.2c4.3,0,7.8,3.5,7.8,7.8
			S309.8,411.8,305.5,411.8z"/>
	</g>
	<g>
		<path class="st6" d="M320.6,444.9c-5.5,0-8.7-2.1-10.6-3.4c-1.1-0.8-1.1-0.8-1.8-0.8s-0.7,0-1.8,0.8c-1.9,1.3-5.1,3.4-10.6,3.4
			s-8.7-2.1-10.6-3.4c-1.1-0.8-1.1-0.8-1.8-0.8c-4.3,0-7.8-3.5-7.8-7.8c0-4.3,3.5-7.8,7.8-7.8c5.5,0,8.7,2.1,10.6,3.4
			c1.1,0.8,1.1,0.8,1.8,0.8c0.7,0,0.7,0,1.8-0.8c1.9-1.3,5.1-3.4,10.6-3.4s8.7,2.1,10.6,3.4c1.1,0.8,1.1,0.8,1.8,0.8
			c4.3,0,7.8,3.5,7.8,7.8C328.4,441.4,324.9,444.9,320.6,444.9z"/>
	</g>
	<g>
		<path class="st6" d="M197.1,411.8H175c-4.3,0-7.8-3.5-7.8-7.8s3.5-7.8,7.8-7.8h22.2c4.3,0,7.8,3.5,7.8,7.8
			S201.5,411.8,197.1,411.8z"/>
	</g>
	<g>
		<path class="st6" d="M212.2,444.9c-5.5,0-8.7-2.1-10.6-3.4c-1.1-0.8-1.1-0.8-1.8-0.8s-0.7,0-1.8,0.8c-1.9,1.3-5.1,3.4-10.6,3.4
			c-5.5,0-8.7-2.1-10.6-3.4c-1.1-0.8-1.1-0.8-1.8-0.8c-4.3,0-7.8-3.5-7.8-7.8c0-4.3,3.5-7.8,7.8-7.8c5.5,0,8.7,2.1,10.6,3.4
			c1.1,0.8,1.1,0.8,1.8,0.8c0.7,0,0.7,0,1.8-0.8c1.9-1.3,5.1-3.4,10.6-3.4c5.5,0,8.7,2.1,10.6,3.4c1.1,0.8,1.1,0.8,1.8,0.8
			c4.3,0,7.8,3.5,7.8,7.8C220,441.4,216.5,444.9,212.2,444.9L212.2,444.9z"/>
	</g>
	<g>
		<ellipse class="st7" cx="145.6" cy="273.7" rx="105.7" ry="30.8"/>
	</g>
	<g>
		<path class="st8" d="M145.6,242.9c-1.8,0-3.5,0-5.3,0c-1.7,2-2.7,3.2-2.7,3.2s63.2,26.4,4.6,58.3c1.1,0,2.2,0,3.4,0
			c58.4,0,105.7-13.8,105.7-30.8C251.3,256.7,204,242.9,145.6,242.9z"/>
	</g>
	<path class="st9" d="M304.1,159.6L159.5,93.7c-8.8-4-19-4-27.8,0L27,141.4c-9.2,18.3-16.2,37.8-20.8,58.2l36.2,16.5v-15.1
		c0-6.8,10.9-14,29.1-19.3c40.8-11.9,107.2-11.9,148,0c18.2,5.3,29.1,12.5,29.1,19.3v15.1l55.4-25.3
		C317.5,184.8,317.5,165.7,304.1,159.6L304.1,159.6z"/>
	<path class="st10" d="M131.7,93.7L27,141.4c-9.2,18.3-16.2,37.8-20.8,58.2l36.2,16.5v-15.1c0-6.8,10.9-14,29.1-19.3
		c18.3-5.3,41.7-8.3,65.7-8.8c4.4-1.9,8.3-2.7,8.3-2.7C87.3,139.3,131.7,93.7,131.7,93.7L131.7,93.7z"/>
	<g>
		<path class="st10" d="M145.6,170.3c-58.4,0-105.7,13.8-105.7,30.8v72.6h0.5c5.4-15.5,50.4-27.6,105.1-27.6s99.7,12.1,105.1,27.6
			h0.5v-72.6C251.3,184.1,204,170.3,145.6,170.3L145.6,170.3z"/>
	</g>
	<g>
		<path class="st7" d="M145.6,170.3c-58.4,0-105.7,13.8-105.7,30.8v72.6h0.5c5.2-14.8,46.1-26.4,97.1-27.5v0
			c-11.8-4.5-11.5-16.6-11.5-16.6s0-33.9,0-44.6C126,174.2,145.6,170.3,145.6,170.3L145.6,170.3z"/>
	</g>
	<g>
		<g>
			<path class="st5" d="M208.8,318.3c-7.7,0-14-6.3-14-14v-39.6c0-7.7,6.3-14,14-14s14,6.3,14,14v39.6
				C222.8,312.1,216.5,318.3,208.8,318.3z"/>
		</g>
	</g>
	<g>
		<path class="st11" d="M208.8,250.7c-7.7,0-14,6.3-14,14V300c0-7.7,6.3-14,14-14s14,6.3,14,14v-35.3
			C222.8,257,216.5,250.7,208.8,250.7L208.8,250.7z"/>
	</g>
	<g>
		<g>
			<path class="st5" d="M208.8,243c-5.8,0-10.5-4.7-10.5-10.5V108.7c0-5.8,4.7-10.5,10.5-10.5c5.8,0,10.5,4.7,10.5,10.5v123.8
				C219.3,238.3,214.6,243,208.8,243L208.8,243z"/>
		</g>
	</g>
	<g>
		<path class="st11" d="M228.6,249.4c0,11-8.9,19.8-19.8,19.8c-11,0-19.8-8.9-19.8-19.8c0-11,8.9-19.8,19.8-19.8
			C219.7,229.6,228.6,238.5,228.6,249.4L228.6,249.4z"/>
	</g>
	<g>
		<path class="st5" d="M221,245.5c0,5-4.1,9.1-9.1,9.1c-5,0-9.1-4.1-9.1-9.1c0-5,4.1-9.1,9.1-9.1C216.9,236.4,221,240.5,221,245.5z"
			/>
	</g>
</g>
</svg>
