<svg xmlns="http://www.w3.org/2000/svg" xmlns:xlink="http://www.w3.org/1999/xlink" viewBox="0 0 467.83 392.22"><defs><style>.cls-1{isolation:isolate;}.cls-2{fill:url(#linear-gradient);}.cls-3{fill:url(#linear-gradient-2);}.cls-4{fill:#5d39a8;}.cls-5{fill:#fff;}.cls-6{fill:#242c7d;}.cls-7{fill:#cadfef;}.cls-8{fill:#3d4051;}.cls-9{fill:#ffe2b2;}.cls-10{fill:#ffdc17;}.cls-11{fill:#ff582a;}.cls-12{fill:#00823e;}.cls-13{fill:#00c75f;}.cls-14{fill:#e3270e;}.cls-15{fill:#cbd0e3;}.cls-16,.cls-18,.cls-23{fill:none;stroke-miterlimit:10;}.cls-16{stroke:#ff582a;stroke-width:8px;}.cls-17{fill:#d4d1fe;}.cls-18{stroke:#ffdc17;stroke-width:5px;}.cls-18,.cls-23{stroke-linecap:round;}.cls-19,.cls-20,.cls-21,.cls-22{opacity:0.59;mix-blend-mode:soft-light;}.cls-19{fill:url(#linear-gradient-3);}.cls-20{fill:url(#linear-gradient-4);}.cls-21{fill:url(#linear-gradient-5);}.cls-22{fill:url(#linear-gradient-6);}.cls-23{stroke:#3d4051;}</style><linearGradient id="linear-gradient" y1="196.11" x2="467.83" y2="196.11" gradientUnits="userSpaceOnUse"><stop offset="0" stop-color="#be3bec" stop-opacity="0.8"/><stop offset="1" stop-color="#66c"/></linearGradient><linearGradient id="linear-gradient-2" x1="178.72" y1="123.52" x2="467.83" y2="123.52" xlink:href="#linear-gradient"/><linearGradient id="linear-gradient-3" x1="208.85" y1="88.55" x2="259.94" y2="88.55" gradientUnits="userSpaceOnUse"><stop offset="0" stop-color="#8ee5b6"/><stop offset="1" stop-color="#00c4d8"/></linearGradient><linearGradient id="linear-gradient-4" x1="200.69" y1="129.33" x2="227.19" y2="129.33" xlink:href="#linear-gradient-3"/><linearGradient id="linear-gradient-5" x1="208.96" y1="112.27" x2="285.05" y2="112.27" xlink:href="#linear-gradient-3"/><linearGradient id="linear-gradient-6" x1="216.33" y1="90.7" x2="227.89" y2="90.7" xlink:href="#linear-gradient-3"/></defs><title>Asset 1</title><g class="cls-1"><g id="Layer_2" data-name="Layer 2"><g id="OBJECTS"><path class="cls-2" d="M467.83,0V341.84S397,277.2,332.07,354.92c-44.83,53.67-160.72,54.41-195-30.75C104.84,244,172.65,223,104.84,220.47c-83.3-3.05-6.12-52.87-41.54-82.3C28.13,108.92-36.62,48.3,26.61,0Z"/><path class="cls-3" d="M467.83,0V224.49s-68.66,39.92-117.72-5.42S276.69,252.28,240,246.76s13.2-61-60.36-48.39c0,0-2.58-8.64,25.66-9.35s54.71-6.26,52-24.55-88-40.25-77.73-84.91C189.7,35.33,274.52,33.92,270.09,0h22.85c-3.9,10.44-5.79,25.42,13.14,28.92C326.58,32.72,339,14,345.29,0h11.92c-1.53,5.44-2.07,13.26,8.27,11.53,6.25-1,8.86-6.45,8.8-11.53Z"/><path class="cls-4" d="M392.35,182.24c-3.65,2.39-14.51,13.82-20.14,20.48-29,34.27-60.87,76.6-57.85,79.16s39.78-35.63,68.79-69.89c5.64-6.66,15.14-19,16.88-23.25Z"/><path class="cls-5" d="M383.15,212c5.64-6.66,15.14-19,16.88-23.25l-7.68-6.5c-3.65,2.39-14.51,13.82-20.14,20.48-.63.74-1.27,1.49-1.91,2.26l10.94,9.26Z"/><path class="cls-6" d="M320.42,277.84c-3.36,3-5.53,4.49-6.06,4-3-2.56,28.83-44.91,57.84-79.17,5.64-6.66,16.5-18.07,20.14-20.46l3.08,2.6c-3.65,2.39-14.51,13.81-20.15,20.47C351.4,233.51,331.47,260.14,320.42,277.84Z"/><path class="cls-7" d="M395.41,184.84c-3.64,2.4-14.5,13.82-20.15,20.48l-1.89,2.25L370.3,205l1.89-2.26c5.65-6.66,16.5-18.09,20.15-20.47Z"/><path class="cls-8" d="M393.74,188a9.08,9.08,0,0,1-2.91-7c0-3.06,1.87-6.1,4.18-8.41a24.32,24.32,0,0,1,12-6.39c4.36-.92,7.89-3.78,8.63-10.5-.54.25,5.16,11-4.68,16.9-8.54,5.12,1.36,7.69-3.61,14A9.22,9.22,0,0,1,393.74,188Z"/><path class="cls-6" d="M47.36,10.85a8,8,0,0,1,2.94,2.49s.05.09.09.14l1.67,2.74.46.75a.05.05,0,0,0,0,0l.59.95,1.8,3,.08.13L82.88,66.74l1.43,10.13,1.35,9.5L77.8,80.84,69.43,75,40.67,27.83l-1-1.65h0l-1.05-1.72h0L37.17,22A7.88,7.88,0,0,1,47.36,10.85Z"/><polygon class="cls-9" points="69.43 74.96 82.88 66.73 84.31 76.86 85.65 86.37 77.8 80.84 69.43 74.96"/><polygon class="cls-8" points="77.8 80.84 84.31 76.86 85.65 86.37 77.8 80.84"/><path class="cls-10" d="M47.36,10.85a8,8,0,0,1,2.94,2.49s.05.09.09.14.15.22.22.34l1.47,2.4.32.52a1.67,1.67,0,0,1,.12.23.05.05,0,0,0,0,0,2.95,2.95,0,0,1-1.17,3.74L43,25.88A3,3,0,0,1,40,26a2.89,2.89,0,0,1-1.12-1.05l-.28-.46L37.17,22A7.88,7.88,0,0,1,47.36,10.85Z"/><polygon class="cls-8" points="52.08 16.22 52.4 16.74 53.14 17.95 54.95 20.91 54.93 20.93 53.66 21.7 41.49 29.14 40.69 27.83 39.67 26.17 38.62 24.45 38.64 24.44 52.06 16.22 52.08 16.22"/><polygon class="cls-4" points="73.07 72.73 45.43 26.74 51.21 23.2 78.88 69.18 73.07 72.73"/><polygon class="cls-5" points="443.94 100.59 369.11 69.26 400.14 132.3 419.99 115.46 443.94 100.59"/><polygon class="cls-8" points="425.54 128.61 431.35 108.41 369.11 69.26 419.99 115.46 425.54 128.61"/><polygon class="cls-7" points="414.34 120.25 425.54 128.61 419.99 115.46 414.34 120.25"/><path class="cls-8" d="M346.93,141.93A13.46,13.46,0,0,0,334,153.72c-.29,2.11,3,2.88,3.25.75a10.15,10.15,0,0,1,9.79-9.2C349.19,145.16,349.09,141.82,346.93,141.93Z"/><path class="cls-11" d="M359.59,170.29c-7,23-32,17.77-32,17.77s-14.83-3.87-19.19-16.72h0a25.22,25.22,0,0,1-.59-13.3c2.35-11.8,9.21-14.4,13.58-15.53s8,.75,11,3.07l3.31,2.59a4.62,4.62,0,0,0,3.62.91l4.15-.72a16.35,16.35,0,0,1,6.62.42l.13,0a22.74,22.74,0,0,1,4.87,1.89C359.3,152.94,363.09,158.77,359.59,170.29Z"/><path class="cls-12" d="M339.54,143.52c-8.62-11.74,3-19.11,5.06-20.27l.29-.16C355.35,138.28,339.54,143.52,339.54,143.52Z"/><path class="cls-13" d="M344.6,123.25a39.61,39.61,0,0,0-5.06,20.27C330.92,131.78,342.59,124.41,344.6,123.25Z"/><path class="cls-14" d="M359.59,170.29c-7,23-32,17.77-32,17.77s-14.83-3.87-19.19-16.72h0a13.68,13.68,0,0,0,5.65,5.95c6.05,3.49,14.72,4,22.92,1.42,10.22-3.23,14.56-13.35,15.42-24.34.37-4.73-2.31-5.59-2.31-5.59l.13,0a22.74,22.74,0,0,1,4.87,1.89C359.3,152.94,363.09,158.77,359.59,170.29Z"/><path class="cls-5" d="M323.28,146.81s-5.93-.52-4,3.13S327.81,148.46,323.28,146.81Z"/><rect class="cls-5" x="119.89" y="85.35" width="31.77" height="13.54" transform="translate(-11.05 165.36) rotate(-60.67)"/><path class="cls-5" d="M134.4,101.2l.53,45a3.76,3.76,0,0,1-5.6,3.32l-39.21-22a3.75,3.75,0,0,1-.07-6.5L128.73,98A3.75,3.75,0,0,1,134.4,101.2Z"/><path class="cls-11" d="M130.84,140.75a2.89,2.89,0,0,1-4.3,2.55L96.86,126.62a2.88,2.88,0,0,1-.06-5l.84-.49c4.13,1.89,11.94,4.54,19.19,1.81,5.91-2.24,9.69-5,13.72-6.38Z"/><path class="cls-5" d="M149.33,84l-13.24-7.44a2.31,2.31,0,0,1-.88-3.15h0a2.32,2.32,0,0,1,3.14-.88l13.24,7.44a2.31,2.31,0,0,1,.88,3.15h0A2.32,2.32,0,0,1,149.33,84Z"/><polygon class="cls-15" points="136.61 76.81 148.41 83.44 147.29 85.45 135.7 78.43 136.61 76.81"/><path class="cls-10" d="M310.41,233.3l-75.59-31.14,46.66,81.23Zm-17.08,5.78-11.74,22.27-21.68-37.23Z"/><polygon class="cls-8" points="240.66 212.32 242.23 211.25 241.54 210.12 239.92 211.04 240.66 212.32"/><polygon class="cls-8" points="245.81 221.28 247.38 220.21 246.69 219.08 245.07 220 245.81 221.28"/><polygon class="cls-8" points="250.96 230.23 252.53 229.16 251.84 228.03 250.22 228.95 250.96 230.23"/><polygon class="cls-8" points="256.11 239.19 257.68 238.12 256.99 236.99 255.37 237.91 256.11 239.19"/><polygon class="cls-8" points="261.26 248.15 262.83 247.08 262.14 245.95 260.52 246.87 261.26 248.15"/><polygon class="cls-8" points="266.41 257.11 267.99 256.04 267.29 254.91 265.67 255.83 266.41 257.11"/><polygon class="cls-8" points="271.56 266.07 273.13 265 272.44 263.87 270.82 264.79 271.56 266.07"/><polygon class="cls-8" points="276.71 275.03 278.29 273.96 277.59 272.83 275.98 273.75 276.71 275.03"/><circle class="cls-5" cx="119.37" cy="27.88" r="6"/><circle class="cls-5" cx="437.07" cy="296.44" r="6"/><circle class="cls-5" cx="278.89" cy="188.58" r="6"/><circle class="cls-5" cx="455.85" cy="151.48" r="6"/><path class="cls-5" d="M344.6,63.26A17.35,17.35,0,0,0,340,67.88a17.39,17.39,0,0,0-4.63-4.62A17.39,17.39,0,0,0,340,58.64,17.35,17.35,0,0,0,344.6,63.26Z"/><circle class="cls-5" cx="373.14" cy="258.68" r="2.67"/><circle class="cls-5" cx="433.63" cy="22.35" r="2.28"/><path class="cls-5" d="M110.17,56.58a2.33,2.33,0,1,1-2.32-2.33A2.33,2.33,0,0,1,110.17,56.58Z"/><path class="cls-14" d="M211.05,307.72c-1.16,0-4.24-.43-4.55-5l-.67-10.24c-.44-6.74-1-16-1.69-26-1.29-20-2.77-42.92-3.54-54.83a4.19,4.19,0,0,0-4.18-3.91H176.26v-9h20.16a13.2,13.2,0,0,1,13.15,12.32c3.85,59.62,5.85,90.47,6,91.69l-4.48.37v0h4.5l-4.35,4.5Z"/><path class="cls-16" d="M164.4,176.05H139a9,9,0,0,0-9,9h0a9,9,0,0,0,9,9H164.4a9,9,0,0,0,9-9h0A9,9,0,0,0,164.4,176.05Z"/><path class="cls-11" d="M197,194.42V328.54H89.46A16.08,16.08,0,0,1,73.4,312.28a235.82,235.82,0,0,1,29.53-110.73A24.55,24.55,0,0,1,124.37,189h67.26A5.39,5.39,0,0,1,197,194.42Z"/><path class="cls-17" d="M95,259.54c-1.67,8.76-4.88,26.2-6.74,39.87a7.23,7.23,0,0,0,7.16,8.19h56.15a8.71,8.71,0,0,0,8.64-7.66l5-41.55a5,5,0,0,0-5-5.57l-58.49,1.06A7,7,0,0,0,95,259.54Z"/><path class="cls-5" d="M99,168.17a13.63,13.63,0,0,0-3.63,3.63,13.66,13.66,0,0,0-3.64-3.63,13.7,13.7,0,0,0,3.64-3.64A13.66,13.66,0,0,0,99,168.17Z"/><path class="cls-8" d="M119.51,253.42l-4.09,25.21s14.85.58,14.85,0,2.59-18.63,3.54-25.24a2.08,2.08,0,0,0-2.06-2.38h-9.41A2.86,2.86,0,0,0,119.51,253.42Z"/><path class="cls-11" d="M113.61,274.62h18.23a1.81,1.81,0,0,1,1.78,2.15c-.8,3.94-3.54,11.89-12.71,11.5-9.76-.42-9.41-8.94-8.88-12.3A1.59,1.59,0,0,1,113.61,274.62Z"/><path class="cls-14" d="M197,194.41V328.54H174.81V251a9.69,9.69,0,0,0-9.69-9.69H85.46a233,233,0,0,1,17.47-39.78A24.55,24.55,0,0,1,124.37,189h67.26A5.39,5.39,0,0,1,197,194.41Z"/><path class="cls-17" d="M197,191.53a6.28,6.28,0,0,0-6.27-6.28H119.63a23.5,23.5,0,0,0-21.32,13.64L83.78,230.3A5.8,5.8,0,0,0,89,238.53h68.18a12.07,12.07,0,0,0,11.9-10l3.14-18.11a14.51,14.51,0,0,1,14.29-12H197Z"/><path class="cls-10" d="M186.19,252.82H193a7.88,7.88,0,0,1,7.89,7.9c0,12-.06,33.35,0,34s-10.55-.49-15.71-1.12a2.91,2.91,0,0,1-2.55-3.09l.62-35A2.89,2.89,0,0,1,186.19,252.82Z"/><rect class="cls-8" x="187.3" y="198.39" width="4.45" height="46.54"/><polygon class="cls-8" points="189.53 235.59 183.3 249.64 194.9 249.64 189.53 235.59"/><path class="cls-7" d="M269.94,332.94s-9.13-22-27.12-24.07S189,328.55,128.45,328.55l-11.2,17H269.94Z"/><path class="cls-5" d="M269.94,332.94s3.91-34.68-5.71-39.59c-11.91-6.09-59.7,11.7-99.15-33.42l-35.69,55.55c-4.2,1.86,17.65,15.08,59,15.14C231.44,330.68,249.9,306.34,269.94,332.94Z"/><path class="cls-7" d="M270,332.94s9.13-22,27.12-24.07,56.73,24.07,117.26,24.07l8.31,12.6H270Z"/><path class="cls-5" d="M269.94,330.36s6.2-29.3,23.32-35.33c19-6.69,52.14,15.73,70,13.7,7.48-.84,26.69-7.52,26.69-7.52l24.36,31.73s-39.3-.38-51.26-1.71c-14.73-1.64-43.28-19.53-65-16.46s-28.17,18.17-28.17,18.17Z"/><path class="cls-8" d="M281.4,358.3H258.49a11.86,11.86,0,0,1-11.86-11.86h46.63A11.86,11.86,0,0,1,281.4,358.3Z"/><path class="cls-8" d="M280.28,339.31H259.6A10.72,10.72,0,0,0,248.89,350H291A10.71,10.71,0,0,0,280.28,339.31Z"/><path class="cls-18" d="M113,348.24H247.09a11.64,11.64,0,0,0,11.64,11.64H281.2a11.64,11.64,0,0,0,11.63-11.64H429.19"/><path class="cls-14" d="M237.89,381.29,222,368.71l-8.21,12.58s-2.92-9.54-3.88-27.16c-.06-1.24-.12-2.53-.17-3.87-.05-1.52-.08-3.09-.1-4.71h0c0-2,0-4.07,0-6.21,0-.76,0-1.51,0-2.29,0-.18,0-.36,0-.54s0-.4,0-.6a140.33,140.33,0,0,0,24-5q0,.58-.06,1.2c0,.63,0,1.26-.09,1.89,0,.42,0,.85,0,1.28-.09,2.3-.15,4.65-.18,7,0,1.07,0,2.13,0,3.2,0,3.06.06,6.13.21,9.16C234.08,364.34,235.33,373.7,237.89,381.29Z"/><path class="cls-11" d="M240,361a.33.33,0,0,1-.24,0C239.94,361,240,361,240,361Z"/><path class="cls-8" d="M407.83,339.87l-44.07-.8a32.24,32.24,0,0,1-12.62-2.78c-9-4-31.27-13.31-43.81-13.78-14.22-.55-26,9.19-26.09,9.29l-.72-.86c.12-.1,12.19-10.08,26.85-9.56,12.28.47,33,8.9,44.23,13.88A31.3,31.3,0,0,0,363.78,338l44.07.8Z"/><path class="cls-8" d="M333.84,339.8c-20-10.91-37.34-6.36-37.51-6.32l-.3-1.08c.18,0,17.89-4.72,38.34,6.42Z"/><path class="cls-8" d="M261.17,333.84l-.63.92a27.6,27.6,0,0,0-22.19-4.06l-1.91.47c-.88.31-1.79.62-2.71.91a141.76,141.76,0,0,1-24,5c-16.06,2.11-33.79,2.68-48.39,2.68-17.43,0-30.39-.82-30.69-.84l.07-1.13c.55.05,43.93,2.78,79-1.85a140.33,140.33,0,0,0,24-5c.8-.25,1.57-.52,2.33-.79l2-.48A28.65,28.65,0,0,1,261.17,333.84Z"/><path class="cls-11" d="M233.61,354.63l-23.69-.5c-.06-1.24-.12-2.53-.17-3.87-.05-1.52-.08-3.09-.1-4.71h0l23.77-3.27c0,1.07,0,2.13,0,3.2C233.4,348.53,233.46,351.6,233.61,354.63Z"/><path class="cls-6" d="M287.12,90.32c-4.65,1.25-9.54,2.67-14.63,4.22h0c-4.19,1.29-8.51,2.67-12.92,4.15-4,1.31-8,2.72-12.1,4.19q-5.86,2.1-11.46,4.24c-12.91,4.94-24.66,10-34.59,14.75a46.36,46.36,0,0,1,50.16-54.31,45.28,45.28,0,0,1,8.89,1.75h0A46.35,46.35,0,0,1,287.12,90.32Z"/><path class="cls-6" d="M293.43,112.49a46.38,46.38,0,0,1-76.59,36.4,45.66,45.66,0,0,1-6.66-7.08l-.13-.17a44.69,44.69,0,0,1-4.53-7.33,46.72,46.72,0,0,1-2.09-4.93,44.09,44.09,0,0,1-1.52-5.13c6.2-3,13.7-6.23,22.09-9.62,7.28-2.94,15.24-6,23.6-9,8.85-3.18,17.35-6,25.19-8.48,5.57-1.73,10.8-3.26,15.58-4.56a47.42,47.42,0,0,1,2.35,5.44,46,46,0,0,1,2.71,14.44Z"/><path class="cls-6" d="M288.37,92.61c-4.78,1.3-10,2.83-15.58,4.56-7.84,2.45-16.34,5.3-25.19,8.48-18,6.46-34.11,13.07-45.69,18.6-.18-.79-.36-1.59-.49-2.37a492.69,492.69,0,0,1,46.05-19c8.65-3.11,17.06-5.9,25-8.34h0c5.09-1.55,10-3,14.63-4.22C287.56,91.07,288,91.83,288.37,92.61Z"/><path class="cls-4" d="M273,101.49C273,126.65,253.8,147,230.14,147a40.81,40.81,0,0,1-20-5.23l-.13-.17a44.69,44.69,0,0,1-4.53-7.33,46.72,46.72,0,0,1-2.09-4.93,44.09,44.09,0,0,1-1.52-5.13c-.18-.79-.36-1.59-.49-2.37a44.94,44.94,0,0,1-.62-11.25,46.36,46.36,0,0,1,50.78-43.06,45.28,45.28,0,0,1,8.89,1.75h0a46.52,46.52,0,0,1,12,25.22h0c.12.87.22,1.75.3,2.62C272.92,98.59,273,100,273,101.49Z"/><path class="cls-5" d="M287.13,90.33c.43.74.84,1.5,1.24,2.28,16.66-4.54,27.85-6.27,28.66-4s-8.92,8.07-24.66,15.15c-10.89,4.9-24.64,10.42-39.76,15.85-18,6.46-34.64,11.59-47.09,14.7-13.12,3.27-21.63,4.31-22.34,2.33s6.52-6.58,18.73-12.39c-.18-.79-.36-1.59-.49-2.38-20.56,9.87-49.24,24.47-47.75,28.63s33.47-3.13,56.37-8.86c13.49-3.37,29.39-8.23,46.21-14.26,13.59-4.88,26.22-10,37.18-14.9,25.68-11.5,52.36-27,50.66-31.74S313.49,83.2,287.13,90.33Z"/><path class="cls-19" d="M259.57,98.7c-1.15,4.66-5.1,9-12.46,10.62-5.15,1.13-8.48,0-11.1-2.19-5-4.24-7.49-12.56-15.32-17.12a19.32,19.32,0,0,0-11.84-2.55,46.35,46.35,0,0,1,42.73-19.89c9.42,8.59-10.61,13.7-.4,16.54A12,12,0,0,1,259.57,98.7Z"/><path class="cls-20" d="M219.57,145.64a33.26,33.26,0,0,1-2.73,3.25,45.66,45.66,0,0,1-6.66-7.08l-.13-.17a44.69,44.69,0,0,1-4.53-7.33,46.72,46.72,0,0,1-2.09-4.93,44.09,44.09,0,0,1-1.52-5.13c-.18-.79-.36-1.59-.49-2.37a44.94,44.94,0,0,1-.62-11.25,32.92,32.92,0,0,1,19.11,1.29,9.8,9.8,0,0,1,4.09,2.71C230.08,121.28,226.83,135.85,219.57,145.64Z"/><path class="cls-21" d="M252.65,83.86c-9.12-.09-11.41,17.61-31.65,17.13-13.31-.32-17.75,28.46-2.09,36.94,19,10.29,20-12.36,51.84-2C290.94,142.54,293.75,84.26,252.65,83.86Z"/><path class="cls-22" d="M221.41,85S211.8,92.83,219,96.75,233.53,79.71,221.41,85Z"/><path class="cls-23" d="M261.68,120.36s68.8-25.93,70.18-36.21"/><path class="cls-23" d="M168.25,146.18c7.24-.86,25.24-5,25.24-5"/></g></g></g></svg>