<?xml version="1.0" encoding="utf-8"?>
<!-- Generator: Adobe Illustrator 23.0.1, SVG Export Plug-In . SVG Version: 6.00 Build 0)  -->
<svg version="1.1" id="Layer_1" xmlns="http://www.w3.org/2000/svg" xmlns:xlink="http://www.w3.org/1999/xlink" x="0px" y="0px"
	 viewBox="0 0 512 512" style="enable-background:new 0 0 512 512;" xml:space="preserve">
<style type="text/css">
	.st0{fill:url(#SVGID_1_);}
	.st1{fill:#167CC1;}
	.st2{fill:#024788;}
	.st3{fill:#E9EFFF;}
	.st4{fill:#D3DCFB;}
	.st5{fill:#1E92D3;}
	.st6{fill:#FFDD40;}
	.st7{fill:#FFB332;}
	.st8{fill:#FF4155;}
	.st9{fill:#BEC8F7;}
	.st10{fill:#9BD8F9;}
	.st11{fill:#73C3F9;}
	.st12{fill:#4FABF7;}
	.st13{fill:#1E9EF4;}
	.st14{fill:#E80054;}
</style>
<g>
	<linearGradient id="SVGID_1_" gradientUnits="userSpaceOnUse" x1="256" y1="21.996" x2="256" y2="493.164">
		<stop  offset="0" style="stop-color:#FF4155"/>
		<stop  offset="0" style="stop-color:#8C03DF"/>
		<stop  offset="0.2229" style="stop-color:#8804DE"/>
		<stop  offset="0.4493" style="stop-color:#7C06DD"/>
		<stop  offset="0.6774" style="stop-color:#6709DA"/>
		<stop  offset="0.9054" style="stop-color:#4B0FD7"/>
		<stop  offset="1" style="stop-color:#3D11D5"/>
	</linearGradient>
	<path class="st0" d="M61.2,415.6l289.2,77.6c73.9-30.9,129.4-96.9,145.7-177.1l4.9-49c0-135.3-109.7-245-245-245S11,131.7,11,267
		C11,322.9,29.7,374.4,61.2,415.6L61.2,415.6z"/>
	<path class="st1" d="M238.1,82.2c0-9.3,1.1-18.3,3.3-27H104.6c-23.9,0-43.4,19.5-43.4,43.4v317c10.7,14,22.8,26.7,36.1,38.1
		l216.4,51.5c12.6-3,24.8-7.1,36.6-12V194.4C288.4,194.4,238.1,144.1,238.1,82.2L238.1,82.2z"/>
	<path class="st2" d="M97.3,453.6l71.6,17l-2.3-358c0-0.5-0.2-1-0.5-1.3c-5.3-6.8-2-11.4,0.1-13.4c0.7-0.6,0.8-1.7,0.4-2.5
		c-2.5-4.8,0.8-7.8,2.2-8.8c0.4-0.3,0.6-0.7,0.8-1.1l3.8-13.1c0.2-0.7,0-1.5-0.4-2c-6.5-7.2-2-12.3,0.5-14.3c0.3-0.3,0.5-0.6,0.7-1
		h-69.6c-23.9,0-43.4,19.5-43.4,43.4v317C71.8,429.5,84,442.3,97.3,453.6z"/>
	<path class="st3" d="M273.9,164.3H88.2v281.2c9.3,8.8,19.3,16.8,29.9,24l58.2,29.2c25,8.6,51.8,13.3,79.7,13.3
		c23.4,0,45.9-3.3,67.3-9.4V191.1C304.6,186.5,287.6,177.1,273.9,164.3L273.9,164.3z"/>
	<path class="st4" d="M166.7,493.9V164.3H88.2v281.2c9.3,8.8,19.3,16.8,29.9,24L166.7,493.9z"/>
	<g>
		<path class="st5" d="M173.8,86.3h-4.3c-4.1,0-7.5-3.4-7.5-7.5s3.4-7.5,7.5-7.5h4.3c4.1,0,7.5,3.4,7.5,7.5S177.9,86.3,173.8,86.3
			L173.8,86.3z"/>
	</g>
	<g>
		<g>
			<path class="st5" d="M241,86.3h-41.6c-4.1,0-7.5-3.4-7.5-7.5s3.4-7.5,7.5-7.5H241c4.1,0,7.5,3.4,7.5,7.5S245.2,86.3,241,86.3z"/>
		</g>
	</g>
	<g>
		<path class="st6" d="M240.3,104.4h-83c-6.6,0-12-5.4-12-12c0-5.7-4.6-10.3-10.3-10.3h-30.4c-9.1,0-16.4,7.3-16.4,16.4v68.4h188.6
			C258.5,151,245.3,129.2,240.3,104.4z"/>
	</g>
	<path class="st7" d="M157.3,104.4c-6.6,0-12-5.4-12-12c0-5.7-4.6-10.3-10.3-10.3h-30.4c-9.1,0-16.4,7.3-16.4,16.4v68.4h78.5v-62.5
		L157.3,104.4L157.3,104.4z"/>
	<g>
		<path class="st5" d="M323.3,178.6c-4.1,0-7.5,3.4-7.5,7.5v318.5c5.1-1.3,10.1-2.7,15-4.3V186.1C330.8,182,327.5,178.6,323.3,178.6
			L323.3,178.6z"/>
		<path class="st5" d="M95.7,452.3V98.6c0-4.9,4-8.9,8.9-8.9H135c1.5,0,2.8,1.2,2.8,2.8c0,10.8,8.7,19.5,19.5,19.5h88
			c4.1,0,7.5-3.4,7.5-7.5s-3.4-7.5-7.5-7.5h-88c-2.4,0-4.5-2.1-4.5-4.5c0-9.8-8-17.8-17.8-17.8h-30.4c-0.1,0-0.3,0-0.4,0
			c-8.2,6.5-16,13.5-23.3,21c-0.1,0.9-0.2,1.9-0.2,2.9v339.6C85.5,443,90.5,447.8,95.7,452.3z"/>
	</g>
	<path class="st1" d="M104.6,89.7H135c1.5,0,2.8,1.2,2.8,2.8c0,10.8,8.7,19.5,19.5,19.5h9.3c-0.1-0.2-0.2-0.4-0.3-0.6
		c-5.3-6.8-2-11.4,0.1-13.4c0.3-0.3,0.5-0.7,0.6-1h-9.6c-2.4,0-4.5-2.1-4.5-4.5c0-9.8-8-17.8-17.8-17.8h-30.4
		c-13.2,0-23.9,10.7-23.9,23.9v339.6c4.8,4.9,9.8,9.6,15,14.1V98.6C95.7,93.7,99.7,89.7,104.6,89.7L104.6,89.7z"/>
	<g>
		<path class="st3" d="M123.2,110.2h-10.3c-4.1,0-7.5-3.4-7.5-7.5s3.4-7.5,7.5-7.5h10.3c4.1,0,7.5,3.4,7.5,7.5
			S127.3,110.2,123.2,110.2z"/>
	</g>
	<path class="st8" d="M190.8,285.4h-62.1c-5.9,0-10.6-4.8-10.6-10.6v-62.1c0-5.9,4.8-10.6,10.6-10.6h62.1c5.9,0,10.6,4.8,10.6,10.6
		v62.1C201.4,280.6,196.6,285.4,190.8,285.4z"/>
	<path class="st8" d="M190.8,415.4h-62.1c-5.9,0-10.6,4.8-10.6,10.6v43.5c17.9,12.2,37.5,22.1,58.3,29.3h14.4
		c5.9,0,10.6-4.8,10.6-10.6V426C201.4,420.2,196.6,415.4,190.8,415.4z"/>
	<g>
		<path class="st9" d="M230.4,221.3H228c-4.1,0-7.5-3.4-7.5-7.5s3.4-7.5,7.5-7.5h2.4c4.1,0,7.5,3.4,7.5,7.5S234.5,221.3,230.4,221.3
			z"/>
	</g>
	<g>
		<path class="st9" d="M255.6,328H228c-4.1,0-7.5-3.4-7.5-7.5s3.4-7.5,7.5-7.5h27.5c4.1,0,7.5,3.4,7.5,7.5S259.7,328,255.6,328z"/>
	</g>
	<g>
		<path class="st9" d="M255.6,434.7H228c-4.1,0-7.5-3.4-7.5-7.5s3.4-7.5,7.5-7.5h27.5c4.1,0,7.5,3.4,7.5,7.5
			S259.7,434.7,255.6,434.7z"/>
	</g>
	<g>
		<path class="st9" d="M247.2,251.2H228c-4.1,0-7.5-3.4-7.5-7.5c0-4.1,3.4-7.5,7.5-7.5h19.2c4.1,0,7.5,3.4,7.5,7.5
			C254.7,247.8,251.4,251.2,247.2,251.2z"/>
	</g>
	<g>
		<path class="st9" d="M294.7,357.9H228c-4.1,0-7.5-3.4-7.5-7.5c0-4.1,3.4-7.5,7.5-7.5h66.7c4.1,0,7.5,3.4,7.5,7.5
			C302.2,354.5,298.8,357.9,294.7,357.9z"/>
	</g>
	<g>
		<path class="st9" d="M294.7,464.6H228c-4.1,0-7.5-3.4-7.5-7.5c0-4.1,3.4-7.5,7.5-7.5h66.7c4.1,0,7.5,3.4,7.5,7.5
			C302.2,461.2,298.8,464.6,294.7,464.6z"/>
	</g>
	<g>
		<path class="st9" d="M294.7,281.1H228c-4.1,0-7.5-3.4-7.5-7.5c0-4.1,3.4-7.5,7.5-7.5h66.7c4.1,0,7.5,3.4,7.5,7.5
			S298.8,281.1,294.7,281.1z"/>
	</g>
	<g>
		<path class="st9" d="M294.7,387.8H228c-4.1,0-7.5-3.4-7.5-7.5c0-4.1,3.4-7.5,7.5-7.5h66.7c4.1,0,7.5,3.4,7.5,7.5
			C302.2,384.4,298.8,387.8,294.7,387.8z"/>
	</g>
	<g>
		<path class="st9" d="M294.7,494.5H228c-4.1,0-7.5-3.4-7.5-7.5s3.4-7.5,7.5-7.5h66.7c4.1,0,7.5,3.4,7.5,7.5
			S298.8,494.5,294.7,494.5z"/>
	</g>
	<g>
		<g>
			<circle class="st10" cx="335.1" cy="126.2" r="126.2"/>
		</g>
		<path class="st11" d="M421.3,215.6c-7.5-1.9-9.9-7.8-10.6-11.4c-0.3-1.5-1.5-2.8-3.1-3.1c-5.6-1-7.2-4.9-7.7-7.7
			c-0.3-1.6-1.6-2.9-3.2-3.2c-48.9-9-45.2-50.8-44.2-57.8c0.1-0.7,0-1.4-0.3-2l-4.4-10.9c-0.5-1.2-1.5-2.1-2.8-2.4
			c-30.8-6.7-27.1-33.1-26.1-38.2c0.1-0.6,0.1-1.2,0-1.7l-3.1-12.2c-0.4-1.4-1.4-2.5-2.8-2.9c-11.2-2.7-11.6-12.8-11-18
			c0.2-1.8-0.8-3.4-2.5-4.1c-4.9-2.1-5.2-6.3-4.7-9.3c0.3-1.9-0.8-3.7-2.6-4.4c-7.5-2.6-7.8-9.4-7.4-13.3c0.1-0.9-0.1-1.7-0.5-2.5
			c-13.9,6.1-27,14.9-38.4,26.3c-49.3,49.3-49.3,129.2,0,178.4c48.9,48.9,127.8,49.3,177.2,1.2C422.6,216.2,422,215.8,421.3,215.6z"
			/>
		<g>
			<circle class="st12" cx="335.1" cy="126.2" r="98.9"/>
		</g>
		<path class="st13" d="M399.9,193.5c-0.3-1.6-1.6-2.9-3.2-3.2c-48.9-9-45.2-50.8-44.2-57.8c0.1-0.7,0-1.4-0.3-2l-4.4-10.9
			c-0.5-1.2-1.5-2.1-2.8-2.4c-30.8-6.7-27.1-33.1-26.1-38.2c0.1-0.6,0.1-1.2,0-1.7l-3.1-12.2c-0.4-1.4-1.4-2.5-2.8-2.9
			c-11.2-2.7-11.6-12.8-11-18c0.2-1.8-0.8-3.4-2.5-4.1c-2.5-1.1-3.8-2.7-4.4-4.4c-10.8,4.8-21,11.6-29.9,20.5
			c-38.6,38.6-38.6,101.2,0,139.9c37.8,37.8,98.5,38.6,137.3,2.5C400.9,197,400.2,195.1,399.9,193.5L399.9,193.5z"/>
		<g>
			<g>
				<path class="st11" d="M259.9,201.4c-41.6-41.6-41.6-108.9,0-150.4c41.5-41.5,109-41.5,150.4,0c41.5,41.5,41.5,109,0,150.4
					C368.8,242.9,301.4,242.9,259.9,201.4z M243.7,126.2c0,81.3,98.9,121.9,156.1,64.7c35.7-35.7,35.7-93.7,0-129.3
					C342.6,4.4,243.7,44.8,243.7,126.2L243.7,126.2z"/>
			</g>
		</g>
		<path class="st12" d="M407.6,201.2c-5.6-1-7.2-4.9-7.7-7.7c-0.1-0.7-0.5-1.4-0.9-1.9c-57.3,56.1-155.3,15.5-155.3-65.4
			c0-41.1,25.2-71.7,57.5-84.6c-0.4-0.6-1-1.1-1.8-1.4c-4.9-2.1-5.2-6.3-4.7-9.3c0.2-1-0.1-2-0.6-2.8c-12.5,5.2-24.2,12.8-34.3,23
			c-41.6,41.6-41.6,108.9,0,150.4c41.2,41.2,108.1,41.5,149.6,0.8C409,201.7,408.3,201.3,407.6,201.2L407.6,201.2z"/>
	</g>
	<g>
		<path class="st3" d="M445.3,236.4c3.6-3.6,8.3-5.6,13.1-5.9L432.9,205c-5.2-5.2-13.8-5.2-19,0s-5.2,13.8,0,19l25.5,25.5
			C439.7,244.7,441.6,240,445.3,236.4L445.3,236.4z"/>
	</g>
	<g>
		<g>
			<g>
				<path class="st3" d="M342.6,186.1c0-4.2-3.4-7.5-7.5-7.5s-7.5,3.4-7.5,7.5s3.4,7.5,7.5,7.5S342.6,190.3,342.6,186.1z"/>
			</g>
		</g>
	</g>
	<g>
		<g>
			<g>
				<g>
					<path class="st3" d="M335.1,168.8c-4.1,0-7.5-3.3-7.5-7.5v-33.2c0-4.1,3.3-7.5,7.5-7.5c6.7,0,13-2.7,17.6-7.6
						c4.6-4.9,7-11.3,6.6-18c-0.7-12.6-11.1-22.7-23.7-23c-12.3-0.2-22.8,8.7-24.5,20.9c-0.2,1.1-0.2,2.3-0.2,3.4
						c0,4.1-3.3,7.5-7.5,7.5s-7.5-3.3-7.5-7.5c0-1.8,0.1-3.7,0.4-5.5c2.7-19.6,19.8-34.2,39.6-33.7c20.4,0.4,37.3,16.7,38.3,37.1
						c0.6,10.9-3.2,21.2-10.7,29.1c-5.7,6-13,10-21,11.5v26.4C342.6,165.5,339.2,168.8,335.1,168.8L335.1,168.8z"/>
				</g>
			</g>
		</g>
	</g>
	<path class="st8" d="M443.9,235c-8,8-8,20.9,0,28.9l52.2,52.2c3.2-15.8,4.9-32.2,4.9-49c0-1.3,0-2.5,0-3.8L472.7,235
		C464.8,227,451.9,227,443.9,235L443.9,235z"/>
	<path class="st14" d="M476.3,264.4c5.3-5.3,12.4-7.5,19.3-6.6L472.7,235c-8-8-20.9-8-28.9,0s-8,20.9,0,28.9l28.9,28.9
		C467.4,283.8,468.6,272.1,476.3,264.4L476.3,264.4z"/>
	<path class="st14" d="M128.7,202c-5.9,0-10.6,4.8-10.6,10.6v62.1c0,5.9,4.8,10.6,10.6,10.6h38c-14.6-14.6,0-32.3,0-32.3l-16.8-27.6
		c-18.3-4.8-7.2-23.4-7.2-23.4L128.7,202L128.7,202z"/>
	<path class="st3" d="M174.5,239.3l-20.7-13.2c-3.4-2.2-8,0.3-8,4.4v26.4c0,4.1,4.5,6.6,8,4.4l20.7-13.2
		C177.7,246,177.7,241.4,174.5,239.3L174.5,239.3z"/>
	<path class="st8" d="M190.8,392.1h-62.1c-5.9,0-10.6-4.8-10.6-10.6v-62.1c0-5.9,4.8-10.6,10.6-10.6h62.1c5.9,0,10.6,4.8,10.6,10.6
		v62.1C201.4,387.3,196.6,392.1,190.8,392.1z"/>
	<path class="st14" d="M128.7,308.7c-5.9,0-10.6,4.8-10.6,10.6v62.1c0,5.9,4.8,10.6,10.6,10.6h38c-14.6-14.6,0-32.3,0-32.3
		l-16.8-27.6c-18.3-4.8-7.2-23.4-7.2-23.4L128.7,308.7L128.7,308.7z"/>
	<path class="st3" d="M174.5,346l-20.7-13.2c-3.4-2.2-8,0.3-8,4.4v26.4c0,4.1,4.5,6.6,8,4.4l20.7-13.2
		C177.7,352.7,177.7,348.1,174.5,346L174.5,346z"/>
	<path class="st14" d="M128.7,415.4c-5.9,0-10.6,4.8-10.6,10.6v43.5c13.9,9.5,28.9,17.6,44.7,24.1c-7.5-13.3,3.9-27.2,3.9-27.2
		l-16.8-27.6c-18.3-4.8-7.2-23.4-7.2-23.4L128.7,415.4z"/>
	<path class="st3" d="M174.5,452.7l-20.7-13.2c-3.4-2.2-8,0.3-8,4.4v26.4c0,4.1,4.5,6.6,8,4.4l20.7-13.2
		C177.7,459.4,177.7,454.7,174.5,452.7L174.5,452.7z"/>
</g>
</svg>
